#tb 0: 1000/14587
#media_type 0: video
#codec_id 0: rawvideo
#dimensions 0: 496x241
#sar 0: 0/1
0,          0,          0,        1,   478144, 0x1e5a0d6c
0,          1,          1,        1,   478144, 0x1e5a0d6c
0,          2,          2,        1,   478144, 0x1e5a0d6c
0,          3,          3,        1,   478144, 0x88788c7d
0,          4,          4,        1,   478144, 0x78643db8
0,          5,          5,        1,   478144, 0x84303909
0,          6,          6,        1,   478144, 0x8ddd4828
0,          7,          7,        1,   478144, 0xc0845d58
0,          8,          8,        1,   478144, 0xc0845d58
0,          9,          9,        1,   478144, 0xc0845d58
